<?xml version="1.0" encoding="utf-8"?>
<!-- Generator: Adobe Illustrator 15.1.0, SVG Export Plug-In . SVG Version: 6.00 Build 0)  -->
<!DOCTYPE svg PUBLIC "-//W3C//DTD SVG 1.1//EN" "http://www.w3.org/Graphics/SVG/1.1/DTD/svg11.dtd">
<svg version="1.1" id="Layer_1" xmlns="http://www.w3.org/2000/svg" xmlns:xlink="http://www.w3.org/1999/xlink" x="0px" y="0px"
	 width="24px" height="24px" viewBox="0 0 24 24" enable-background="new 0 0 24 24" xml:space="preserve">
<g>
	<path fill="#010101" d="M23.078,10.153h-1.107c-0.508,0-1.047-0.396-1.197-0.882l-0.637-1.546
		c-0.238-0.446-0.141-1.107,0.217-1.466l0.787-0.785c0.359-0.36,0.359-0.947,0-1.307l-1.309-1.305c-0.357-0.359-0.945-0.359-1.304,0
		L17.74,3.648c-0.357,0.359-1.02,0.457-1.467,0.216L14.73,3.229c-0.484-0.15-0.882-0.689-0.882-1.197V0.924
		C13.849,0.417,13.433,0,12.924,0h-1.846c-0.508,0-0.924,0.417-0.924,0.924v1.108c0,0.508-0.396,1.047-0.881,1.197L7.729,3.864
		C7.279,4.105,6.621,4.008,6.262,3.648L5.475,2.862c-0.359-0.359-0.945-0.359-1.305,0L2.865,4.167c-0.361,0.359-0.361,0.947,0,1.306
		l0.783,0.786c0.359,0.359,0.459,1.02,0.217,1.466L3.23,9.272c-0.152,0.485-0.689,0.882-1.197,0.882l-1.109-0.001
		C0.416,10.153,0,10.569,0,11.077v1.846c0,0.508,0.416,0.924,0.924,0.924h1.109c0.508,0.001,1.045,0.398,1.195,0.883l0.637,1.546
		c0.241,0.447,0.143,1.109-0.217,1.467l-0.785,0.785c-0.359,0.359-0.359,0.946,0,1.307l1.307,1.306c0.359,0.359,0.945,0.359,1.305,0
		l0.787-0.785c0.358-0.358,1.018-0.456,1.463-0.215l1.549,0.637c0.484,0.15,0.881,0.688,0.881,1.196v1.105
		c0,0.507,0.416,0.923,0.924,0.923h1.846c0.509,0,0.925-0.416,0.925-0.923v-1.105c0-0.508,0.397-1.046,0.882-1.196l1.548-0.637
		c0.446-0.241,1.106-0.144,1.467,0.215l0.783,0.785c0.358,0.359,0.946,0.359,1.304,0l1.309-1.306c0.359-0.36,0.359-0.947,0-1.307
		l-0.787-0.785c-0.357-0.357-0.455-1.02-0.217-1.467l0.637-1.546c0.15-0.484,0.692-0.882,1.197-0.882h1.107
		c0.508,0,0.922-0.415,0.922-0.923v-1.848C24,10.569,23.586,10.153,23.078,10.153z M16.62,11.999c0,2.55-2.067,4.615-4.616,4.615
		c-2.551,0-4.617-2.065-4.617-4.615c0-2.549,2.066-4.615,4.617-4.615C14.553,7.383,16.62,9.45,16.62,11.999z"/>
</g>
</svg>
